<?xml version="1.0" encoding="UTF-8"?>
<svg xmlns="http://www.w3.org/2000/svg" width="111" height="19" viewBox="0 0 111 19" fill="none"><path d="M11.802 14.8797C11.0211 15.7101 9.87408 16.1315 8.39599 16.1315C7.28907 16.1315 6.37149 15.8925 5.66286 15.4198C4.97826 14.9619 4.44309 14.3781 4.07588 13.6847C3.72304 13.0207 3.48542 12.3014 3.37321 11.5576C3.26586 10.8507 3.20922 10.1839 3.20922 9.57819C3.20922 8.97251 3.26586 8.30653 3.37321 7.5988C3.48515 6.85482 3.72278 6.1354 4.07588 5.47142C4.44353 4.77805 4.97958 4.19424 5.66286 3.73634C6.37105 3.26385 7.28863 3.02485 8.39599 3.02485C9.13128 3.02485 9.78679 3.1353 10.3385 3.34757C10.8972 3.5667 11.3795 3.86954 11.7747 4.24902C12.1607 4.61905 12.4776 5.05524 12.7104 5.53702C12.8342 5.79436 12.9453 6.05523 13.0471 6.31964H16.3569C16.2222 5.74687 16.0483 5.22513 15.8363 4.76369C15.514 4.05685 15.1481 3.43726 14.7476 2.91706C14.3544 2.40902 13.9266 1.98491 13.4732 1.65468C13.0017 1.31363 12.5254 1.03266 12.0626 0.82458C10.9576 0.328243 9.73412 0.0514671 8.43081 0C6.84141 0.0527925 5.41776 0.412178 4.19623 1.07087L4.19248 1.07264L4.18719 1.07639C3.6582 1.35361 3.13847 1.72051 2.64694 2.1656C2.16468 2.6034 1.71856 3.16335 1.3216 3.82933C0.923091 4.49907 0.598863 5.31084 0.36236 6.24144C0.122109 7.18265 0 8.30454 0 9.57819C0 10.8518 0.122109 11.9737 0.36236 12.9136C0.600847 13.8458 0.917581 14.6522 1.30352 15.3109C1.68572 15.9586 2.12456 16.5004 2.61256 16.9201C3.11951 17.3579 3.63924 17.7228 4.15435 18.0055C5.37764 18.6404 6.80681 18.9761 8.40172 18.9995C9.72706 18.9995 10.9585 18.7475 12.0643 18.2534C12.5619 18.0249 13.0373 17.7506 13.4844 17.4341C13.9359 17.1185 14.3619 16.7052 14.7534 16.2117C15.1521 15.7063 15.5162 15.0951 15.8365 14.3927C16.0496 13.924 16.2259 13.3892 16.3626 12.7965H13.1005C12.8116 13.5712 12.37 14.2797 11.802 14.8797Z" fill="#21221B"/><path d="M50.8119 9.71139C50.2692 9.33765 49.6708 9.05248 49.0389 8.86649C48.3653 8.66364 47.6759 8.51721 46.9781 8.42869C46.3306 8.34498 45.6792 8.29506 45.0265 8.27915C44.382 8.26634 43.8998 8.25904 43.5537 8.25904C42.4488 8.25904 41.5583 8.09669 40.8321 7.76293C39.9418 7.35406 39.4521 6.59332 39.4521 5.62274C39.4521 4.6559 39.9127 3.85872 40.7847 3.31489C41.5513 2.83865 42.548 2.59788 43.7468 2.59788C45.3706 2.59788 46.5046 2.89343 47.211 3.50353C47.7555 3.97225 48.0995 4.56512 48.2397 5.27506H51.4657C51.3927 4.25897 51.1324 3.43593 50.6863 2.82319C50.1038 2.02224 49.4031 1.41104 48.6001 1.0024C47.7682 0.579173 46.9071 0.305495 46.0433 0.188644C45.1257 0.0647257 44.392 0.000888824 43.8641 0.000888824C42.8537 0.000888824 41.8779 0.123039 40.9659 0.364029C40.0738 0.599276 39.2746 0.95314 38.592 1.41833C37.9319 1.86718 37.3842 2.46289 36.9918 3.15894C36.5966 3.85032 36.3967 4.68042 36.3967 5.62362C36.3967 6.463 36.584 7.16167 36.9698 7.76381C37.3775 8.3955 37.918 8.9303 38.5534 9.3308C39.227 9.7633 39.9954 10.0882 40.84 10.2996C41.6974 10.5164 42.5758 10.6388 43.4596 10.6645C44.7215 10.6919 45.6935 10.7723 46.4253 10.9108C47.2082 11.0586 47.7835 11.2483 48.1886 11.4911C48.6735 11.7829 48.9876 12.1405 49.1242 12.5514C49.2269 12.8551 49.2798 13.1736 49.2807 13.4943C49.2785 13.7876 49.2363 14.0793 49.1551 14.3611C49.0405 14.7715 48.7509 15.1437 48.2942 15.4655C47.8917 15.7527 47.3202 15.9654 46.5465 16.1167C45.9457 16.2356 45.1702 16.2921 44.1779 16.2921C43.9868 16.2921 43.7827 16.2904 43.5753 16.2864C42.4922 16.2574 41.6474 16.1205 40.9903 15.8651C40.3057 15.6001 39.7924 15.2758 39.4227 14.8711C39.0531 14.4665 38.8076 14.0302 38.7 13.5776C38.6802 13.4957 38.6619 13.4172 38.6473 13.3404H35.4233C35.4908 14.0976 35.6601 14.7563 35.9303 15.3036C36.2927 16.0425 36.7533 16.6511 37.2993 17.1061C37.8536 17.5733 38.4835 17.9423 39.1618 18.1971C39.8755 18.4635 40.5616 18.6609 41.2026 18.7811C41.8398 18.9013 42.4041 18.9689 42.8777 18.9817C43.3968 18.9945 43.719 19 43.8645 19C44.68 19 45.6322 18.9379 46.6955 18.812C47.7004 18.6934 48.6526 18.418 49.5225 17.9927C50.3601 17.5841 51.0773 16.9804 51.6581 16.194C52.2116 15.443 52.4919 14.3914 52.4919 13.0687C52.4919 12.2549 52.339 11.5764 52.0368 11.0526C51.7185 10.5086 51.3072 10.056 50.8119 9.71139Z" fill="#21221B"/><path d="M58.9131 15.1006C58.5144 14.878 58.1921 14.6264 57.9537 14.3527L57.9426 14.3417L57.9336 14.3291C57.6621 13.9911 57.4666 13.5984 57.3605 13.1778L57.3385 13.0848V7.83405H61.7877V4.77253H57.3383V0H54.1643V13.6485C54.1643 14.8192 54.3938 15.7302 54.8476 16.3522C55.3356 17.0235 55.8743 17.5309 56.4478 17.8629C56.8394 18.0895 57.257 18.2676 57.6916 18.393C58.2323 18.5509 58.7965 18.6119 59.3597 18.6119H62.7157V15.4711H60.5495C59.9014 15.4711 59.3498 15.3469 58.9131 15.1006Z" fill="#21221B"/><path d="M80.8867 8.33215C80.8503 7.93632 80.8064 7.5438 80.7555 7.16807C80.6136 6.23769 80.3808 5.41664 80.0639 4.72327C79.7452 4.02637 79.3775 3.41715 78.9678 2.91352C78.5635 2.41542 78.1194 1.99396 77.6517 1.6602C77.1637 1.31539 76.6818 1.03443 76.2132 0.82458C75.0865 0.33001 73.8504 0.0514671 72.5431 0C70.954 0.0527925 69.5303 0.412178 68.3088 1.07087C67.799 1.35007 67.2803 1.72051 66.7705 2.17112C66.2808 2.60517 65.8402 3.15982 65.458 3.82027C65.0703 4.49354 64.7526 5.30708 64.5133 6.24144C64.2728 7.18265 64.1489 8.30454 64.1489 9.57819C64.1489 10.8518 64.2728 11.9737 64.5133 12.9136C64.7515 13.8478 65.0685 14.6522 65.4542 15.3109C65.8366 15.9586 66.2753 16.5004 66.7632 16.9201C67.2702 17.3579 67.7882 17.7228 68.305 18.0055C69.5286 18.6404 70.9577 18.9761 72.5524 18.9995C73.7594 18.9995 74.9207 18.7842 76.0076 18.359C76.4897 18.1514 76.9547 17.9061 77.3984 17.6254C77.8751 17.3214 78.3092 16.9551 78.6894 16.5362C79.0989 16.0911 79.4793 15.5548 79.8216 14.9381C80.0334 14.5512 80.2095 14.1457 80.3478 13.7267H76.8231C76.5029 14.3158 76.0695 14.8506 75.5306 15.3193C74.7953 15.9614 73.7894 16.2861 72.5469 16.2861C71.2998 16.2861 70.2969 15.9614 69.5614 15.3193C68.8805 14.7284 68.3687 14.0313 68.0405 13.2522C67.8401 12.7669 67.6936 12.261 67.6037 11.7436C67.594 11.6866 67.5843 11.6298 67.575 11.573C67.4621 10.8876 67.4045 10.1942 67.4029 9.49955H80.9405C80.9394 9.08936 80.9211 8.69684 80.8867 8.33215ZM67.5971 7.83405V7.83029C67.6191 7.38366 67.6788 6.9379 67.8058 6.50938C67.9118 6.15195 68.049 5.80455 68.2158 5.4712C68.4625 4.98082 68.7857 4.53304 69.1732 4.14476C69.5887 3.73203 70.0811 3.40532 70.6225 3.18323C71.1795 2.94975 71.8275 2.8329 72.5467 2.8329C73.2659 2.8329 73.9119 2.94975 74.4691 3.18323C75.01 3.40507 75.5019 3.73183 75.9164 4.14476C76.3075 4.53462 76.6282 4.98955 76.8641 5.48931C76.8752 5.51317 76.8862 5.5368 76.897 5.56044C77.2243 6.27347 77.3883 7.05078 77.4008 7.8356L67.5971 7.83405Z" fill="#21221B"/><path d="M86.2531 0H83.0798V18.9498H86.2531V0Z" fill="#21221B"/><path d="M91.8842 5.40758C91.8925 5.40758 91.9009 5.40758 91.9091 5.40626V18.9498H88.7351V5.41399C89.0942 5.42238 89.5742 5.42591 90.1931 5.42591C90.9567 5.42591 91.5092 5.42062 91.8842 5.40758Z" fill="#21221B"/><path d="M32.2571 2.49027C31.6056 1.70192 30.7627 1.08542 29.7486 0.656893C28.7164 0.222626 27.4274 0.00195785 25.9202 0.000190735C24.3253 0.049449 22.8944 0.410602 21.6711 1.07106C21.1613 1.35026 20.6424 1.7207 20.1328 2.17131C19.6431 2.60359 19.2025 3.16001 18.82 3.82047C18.4306 4.49373 18.1147 5.30904 17.8754 6.24163C17.6329 7.18107 17.5112 8.30473 17.5112 9.57838C17.5112 10.8556 17.6276 11.981 17.8571 12.9224C18.0847 13.8603 18.3861 14.6703 18.7491 15.3288C19.1094 15.9802 19.5155 16.5238 19.9598 16.9452C20.415 17.3777 20.8919 17.7389 21.3779 18.0163C22.208 18.4842 23.1448 18.7881 24.1732 18.922C24.7829 19.0015 25.3998 19.0022 26.013 18.9595C26.5246 18.924 27.0518 18.8634 27.4946 18.7468C28.1063 18.5856 28.3646 18.5189 29.0098 18.1363C29.2679 17.9834 29.8006 17.634 30.0554 17.4133L30.8227 16.6689L31.0973 16.3835C31.0973 16.3835 31.1321 16.877 31.1321 17.3775V18.6125H34.1886V9.6166C34.1886 8.06375 34.0266 6.66265 33.7099 5.45129C33.405 4.28743 32.9161 3.29122 32.2571 2.49027ZM30.9683 11.5558C30.855 12.3069 30.6087 13.0317 30.241 13.696C29.8606 14.3854 29.3216 14.9637 28.6408 15.4189C27.9326 15.8916 27.0133 16.1306 25.9077 16.1306C24.8021 16.1306 23.8832 15.8927 23.1765 15.4198C22.4901 14.9619 21.957 14.3781 21.5873 13.6847C21.2351 13.0199 20.9981 12.3001 20.8864 11.5558C20.7762 10.8489 20.7224 10.1838 20.7224 9.57816C20.7224 8.97248 20.7771 8.3065 20.8864 7.59877C20.9979 6.85491 21.2349 6.1355 21.5873 5.47139C21.957 4.77802 22.491 4.19421 23.1765 3.73631C23.8818 3.26382 24.8023 3.02482 25.9072 3.02482C27.0432 3.02482 27.9791 3.22738 28.6871 3.62874C29.408 4.03738 29.958 4.59203 30.3236 5.27613C30.6624 5.91273 30.8864 6.62797 30.9902 7.40152C31.084 8.12327 31.1314 8.85031 31.1321 9.57816C31.1321 10.1801 31.0757 10.8461 30.9683 11.5558Z" fill="#21221B"/><path d="M110.521 5.45129C110.215 4.28743 109.728 3.29122 109.068 2.49027C108.416 1.70192 107.574 1.08542 106.56 0.656893C105.527 0.222626 104.238 0.00195785 102.731 0.000190735C101.136 0.049449 99.7054 0.410602 98.4821 1.07106C97.9723 1.35026 97.4535 1.7207 96.9439 2.17131C96.4541 2.60359 96.0135 3.16001 95.6313 3.82047C95.2416 4.49373 94.9249 5.30904 94.6864 6.24163C94.4439 7.18107 94.3223 8.30473 94.3223 9.57838C94.3223 10.8556 94.4389 11.981 94.6681 12.9224C94.8958 13.8603 95.1971 14.6703 95.5603 15.3288C95.9207 15.9802 96.3267 16.5238 96.7708 16.9452C97.226 17.3777 97.703 17.7389 98.189 18.0163C99.0193 18.4842 99.9558 18.7881 100.984 18.922C101.594 19.0015 102.211 19.0022 102.824 18.9595C103.336 18.924 103.863 18.8634 104.306 18.7468C104.917 18.5856 105.176 18.5189 105.821 18.1363C106.079 17.9834 106.612 17.634 106.866 17.4133L107.634 16.6689L107.908 16.3835C107.908 16.3835 107.943 16.877 107.943 17.3775V18.6125H111V9.6166C111 8.06375 110.838 6.66265 110.521 5.45129ZM107.779 11.5558C107.666 12.3069 107.42 13.0317 107.052 13.696C106.672 14.3854 106.133 14.9637 105.452 15.4189C104.744 15.8916 103.824 16.1306 102.719 16.1306C101.613 16.1306 100.694 15.8916 99.9878 15.4189C99.3016 14.961 98.768 14.3772 98.3986 13.6838C98.0463 13.0191 97.8093 12.2992 97.6977 11.5549C97.5886 10.8481 97.5339 10.183 97.5339 9.57728C97.5339 8.9716 97.5886 8.30562 97.6977 7.59789C97.809 6.854 98.046 6.13458 98.3986 5.47051C98.768 4.77713 99.3023 4.19333 99.9878 3.73543C100.694 3.26294 101.614 3.02394 102.719 3.02394C103.855 3.02394 104.791 3.2265 105.499 3.62785C106.219 4.0365 106.769 4.59115 107.135 5.27524C107.474 5.91184 107.698 6.62708 107.801 7.40064C107.895 8.12238 107.943 8.84943 107.943 9.57728C107.943 10.1801 107.887 10.8461 107.779 11.5558Z" fill="#21221B"/><path d="M91.9092 0H88.7361V3.17992H91.9092V0Z" fill="#21221B"/></svg>
